<?xml version="1.0" encoding="UTF-8"?>
<svg width="250" height="250" version="1.1" viewBox="0 0 50.000001 50" xmlns="http://www.w3.org/2000/svg">
<g transform="translate(6.7617 -3.4128e-5)">
<path d="m36.477 22.897c0 10.073-8.1656 18.238-18.238 18.238-10.073 0-18.238-8.1656-18.238-18.238 0-10.073 8.1656-18.238 18.238-18.238 10.073 0 18.238 8.1656 18.238 18.238z" color="#000000" fill="#ce302f" fill-rule="evenodd"/>
<path d="m32.566 49.993v-3.3995c0-0.65031 0.5058-0.28903 0.79482-0.86709 0.28903-0.57805 1.8064-8.5263-0.72257-12.573-2.529-4.0464-5.4192-4.6244-8.8876-3.6128s-6.9366 10.044-6.9366 10.044-4.5522 1.6619-5.4915 3.0348c-0.93933 1.3729-2.2308 3.7066-1.0328 4.9047 1.1287 1.1287 1.5474 0.29779 1.5474 0.29779 0.22992-0.02553 0.31816 0.16171 0.52253 0.16171 0.31079 0 0.33574-0.14054 0.69702-0.14054 0.36128 0 0.14451 2.15 0.14451 2.15" fill-rule="evenodd" stroke="#000" stroke-width=".14835px"/>
<path d="m22.08 20.608s0.65481-1.7486 2.1717-1.7486c1.5169 0 1.907 2.1733 1.9161 3.2853 8e-3 1.0379-0.47902 2.8622-2.5548 2.8622" fill="#f6f2e0" fill-rule="evenodd" stroke="#000" stroke-width=".44504"/>
<path d="m13.224 30.394-0.09878 1.6793 6.1246 2.5684s2.5811-1.4913 3.3586-8.1002c0.19756-1.6793-4.5404-3.0331-4.5404-2.5392 0 3.0686-1.8805 6.1942-4.844 6.3917z" fill="#fff" fill-rule="evenodd"/>
<path d="m13.633 20.776-1.8539 0.86435-0.17396 4.4948 1.469 1.427s0.07984 2.3153-0.6387 2.7943c-0.71853 0.47902 3.8568 0.63086 4.7104-2.5548 0.85058-3.1744 1.3783-3.9754 2.6586-3.8158 0.57675 0.07193-0.06464-0.76483 2.6864 1.3705 0.66848 4.1421-2.6306 9.2314-3.1894 9.2314-0.95804-0.15967-6.4182-2.6869-6.4182-2.6869-0.38899 0.58349-0.61261 0.75147-2.2456 1.1976-2.4199 0.66101-1.6352 3.0062-0.67714 3.7247 0.95805 0.71853 2.7943 1.5169 4.0717 1.1177 1.2774-0.39918 6.7862-2.954 7.7442-2.954 0.95804 0 1.6766-0.02714 2.0758-0.71854 0.23809-0.41238-0.60275-2.4184-0.33133-9.0257 0.09269-2.2335-2.1436-4.866-2.2235-7.82-0.06055-2.2403-9.6603-0.55886-9.6603-0.55886z" fill="#f4f1de" fill-rule="evenodd" stroke="#000" stroke-width=".44504"/>
<path d="m13.241 28.997c0-0.10218 1.6733-2.8912 2.8777-4.1654 0.9974-1.0553-0.64264-0.03545-0.64264-0.03545l-2.184 2.7165z" fill="#d0caa6" fill-rule="evenodd"/>
<path d="m19.095 18.383s1.7543 0.55654 1.3284 2.1459c-0.23869 0.8908-0.97077 2.0437-2.7079 1.9415-1.621-0.09535 1.7372-0.61312 1.3795-4.0875z" fill="#d1caa9" fill-rule="evenodd"/>
<path d="m12.044 17.714s8.6288 0.52861 8.9354 0.32424c0.30656-0.20437-0.04523-0.83517-0.04523-0.83517l-9.1457-0.35765z" fill="#d0cbad" fill-rule="evenodd"/>
<path d="m5.685 15.255s0.08246-1.2348 0.26688-1.2963c0.22876-0.07625 4.3845 1.9826 6.7484 2.1351-0.83879-2.0588-1.1438-9.646 1.1819-16.013 4.1041 0.51764 8.7103 2.0034 13.818 3.0316 0.15916 0.03203 0.47849 0.38298 0.21949 0.5538-1.0036 1.7845-6.351 5.3379-6.4889 12.48 2.3117-0.22649 4.3258-1.3637 4.833-1.38 0.10127-0.0029 0.27168 0.17058 0.15614 0.36667-0.83878 1.6394-0.79348 1.9429-0.79348 1.9429-0.11976 0.13971-0.19261 0.20469-0.32971 0.21323-1.8809 0.11707-15.774 0.87963-19.612-2.0343z" fill-rule="evenodd" stroke="#000" stroke-width=".14835px"/>
<path d="m12.037 25.326c2.6528-3.6786 4.2314-2.6615 4.2314-0.79837-1.6766 0.79837-5.4289 6.387-5.4289 6.387-1.556-1.0211-2.2354-2.086-2.2354-4.8701-0.07983-4.2314 5.2693-5.1096 5.2693-5.1096s-0.47902-1.5967-0.15968-1.9959" fill="#f4f1de" fill-rule="evenodd" stroke="#000" stroke-linecap="round" stroke-linejoin="round" stroke-width=".44504"/>
<path d="m17.597 26.598 2.4617 6.2918" fill="none" stroke="#000" stroke-linecap="round" stroke-width=".47471"/>
<path d="m16.667 28.917s-0.01897 3.8952 0.17862 4.3891" fill="none" stroke="#000" stroke-linecap="round" stroke-width=".37086"/>
<path d="m14.892 30.279c0.04231 0.59198-0.05617 2.0195-0.05617 2.0195" fill="none" stroke="#000" stroke-linecap="round" stroke-width=".37086"/>
<path d="m13.28 30.596c0 0.51289-0.3752 1.5566-0.3752 1.5566" fill="none" stroke="#000" stroke-width=".59338"/>
<path d="m14.758 20.879s0.48418 1.4397 2.125 1.5218c1.2318 0.06157 2.9615-1.1936 2.7974-2.5883s-0.8204-1.8869-2.2151-1.6408" fill="#fff" fill-rule="evenodd" stroke="#000" stroke-width=".50438"/>
<path d="m16.188 23.41s4.1009-2.438 8.3829 2.8741c3.3185 4.1168 6.3444 1.2921 6.3444-0.20741 0-2.277-3.8001-2.6687-3.8001 0.76627-0.55886 0.47902-1.1342-2.9488 2.1391-2.9488 2.4848 0 2.519 2.7282 1.6236 4.2791-0.85252 1.4766-4.1642 3.4231-7.2652-0.69164-4.1515-5.5088-7.3351-2.7853-7.3351-2.7853z" fill="#040100" fill-rule="evenodd" stroke="#000" stroke-width=".14835px"/>
<path d="m8.8114 28.558s-1.7505 1.2642-2.5285 2.6743c-0.56813 1.0297-2.5982 2.6046-4.3276 0.87524-1.6378-1.6378 0.82661-5.3 2.9175-3.6954-0.37146 0.28447-1.6223-0.57451-2.4312 0.82661-0.5012 0.86811-0.68143 2.8202 1.0211 2.8202 2.2396 0 1.556-2.8688 5.0569-5.3487" fill="#010101" fill-rule="evenodd" stroke="#000" stroke-width=".14835px"/>
<path d="m18.663 19.559c-0.37122 0.02232-0.55012 0.45341-0.31536 0.66153 0.32544 0.2885 0.60849 0.03378 0.65514-0.1042 0.11423-0.33783 0.01423-0.57863-0.33978-0.55733z" fill-rule="evenodd"/>
<path d="m10.946 37.313c-0.30656-0.40875-0.86859-1.5838 0.58757-2.4779" fill="none" stroke="#000" stroke-linecap="round" stroke-width=".44504"/>
<path d="m22.569 17.412-0.30656 2.759-0.51093 0.25547-0.71531-3.0656z" fill-rule="evenodd"/>
<path d="m8.3323 17.899c-0.4562-0.79017 3.4149-2.8914 4.0603-0.4828 0.54796 2.045 0.53662 3.0001 2.0021 3.0614 1.519 0.06354 3.0145-3.3211 3.3211-3.27 0.30656 0.05107 0.61312 0.51094 0.05107 0.97077-0.56203 0.45984-2.0062 3.0263-3.6276 2.8101-1.5328-0.20437-2.345-3.9556-3.5786-4.1146-1.65-0.21267-1.9992 1.4217-2.2283 1.025z" fill-rule="evenodd" stroke="#000" stroke-width=".14835px"/>
<path d="m11.49 21.753s-1.9141-1.0279-0.58485-2.6052c1.3292-1.5773 1.3292-0.81524 1.3292-0.81524 0.44307 1.2051 1.5064 2.5521 1.5064 2.5521z" fill="#fff" fill-rule="evenodd" stroke="#000" stroke-width=".44504"/>
<path d="m12.784 19.91c0.15092-0.21884 0.70891 0.56713 0.60257 0.74436-0.08861 0.10634-1.5596 0.30128-0.60257-0.74436z" fill-rule="evenodd"/>
<path d="m23.694 23.426s1.554 0.10025 1.6041-1.6041c0.05012-1.7043-1.0026-1.955-1.0026-1.955s-1.4036 0.35089-1.0025 1.2031c0.40102 0.85217 1.0527 0.95242 0.90229 1.5038-0.15038 0.5514-0.40102 0.90229-0.50128 0.85217z" fill="#d1caac" fill-rule="evenodd"/>
<path d="m23.325 23.653s1.6399-1.0318 0.35056-2.0794c-1.2774-1.0379 0.4166-2.0758 1.1351-1.5967" fill="none" stroke="#000" stroke-linecap="round" stroke-width=".44504"/>
<path d="m17.626 38.673s1.2263 0.36913 1.39 0.73756c0.45388 1.0212-0.31205 2.2978-0.34041 2.8935-0.02838 0.59573 0.65246 3.546 0.05676 3.5743-0.59572 0.02838-1.1631 0.36879-1.2198-0.48225-0.05676-0.85103-4.4254 0.05676-4.4254 0.05676l-1.2766-5.7077s3.6027-1.6112 5.8154-1.0722z" fill="#f5f2de" fill-rule="evenodd" stroke="#000" stroke-width=".44504"/>
<path d="m13.286 46.417s-2.2127-4.4254-2.6098-5.3615c-0.39715-0.93614 3.2231-2.6382 4.5672-2.6382 2.4644 0 2.5531-0.09665 2.5531 1.1631 0 1.6176-1.3666-0.18735-3.9715 0.51062-1.5718 0.42115-1.6379 0.30973-1.3333 1.4468 0.49006 1.829 0.9245 0.40415 2.4396 0.11347 2.192-0.42055 2.6382-0.42822 2.6382 0.68819 0 0.8105-0.03502 1.3027-2.1559 0.9004-1.8312-0.34735-2.0908 0.21368-1.7872 0.90777 0.36846 0.84225 0.68261 0.19857 1.9857 0.19857 0.48225 0 1.8761 0.5016 1.7588 0.99287-0.13669 0.57251-0.52588 0.92122-1.5319 0.34042-1.1788-0.6806-1.4184 0.82266-1.7304 0.79429-0.31204-0.02838-0.82266-0.02838-0.82266-0.05676z" fill="#f6f1df" fill-rule="evenodd" stroke="#000" stroke-width=".44504"/>
<path d="m19.442 39.325s-0.25531-1.3333 0.17021-2.1559c0.42552-0.82266 1.2482-1.4468 1.2482-1.4468s0.28368 0.9645 0.34041 1.1347c0.05676 0.17021-1.7588 2.4964-1.7588 2.468z" fill="#fefefe" fill-rule="evenodd"/>
<path d="m21.172 40.744s0.16837-2.2425 0.75999-3.6214c0.19092-0.44498 0.55107-0.5279 0.80024-0.70785l0.59572 1.8329z" fill="#fefefe" fill-rule="evenodd"/>
<path d="m19.113 42.941c0-0.20658 0.66492-0.20814 0.9661-0.14389 0.13526 0.41067-0.04115 1.9528 0.16444 2.9805 0.20555 1.0278 0.20555 1.5211 0.20555 1.5211-0.59611 0.06164-1.2333 0.4126-1.2333-0.63722 0-1.0925 0.185-0.86334 0.185-1.4183 0-0.51429-0.36793-1.0197-0.28778-2.3022z" fill="#fefefe" fill-rule="evenodd"/>
<path d="m11.796 44.257s0.86334 1.9117 0.90444 2.1789c0.04107 0.26722 0.08276 1.11-0.43166 1.11-0.61974 0-0.49333-0.06106-0.49333-1.4594 0-1.0902 0.02057-1.8294 0.02057-1.8294z" fill="#fefefe" fill-rule="evenodd"/>
<path d="m22.781 35.28c0.44452 0.34574 0.71618 2.177 0.81496 2.1029 0.09879-0.07408 0.29635-1.1632 0.29635-2.1523 0-0.93877-0.02473-0.22227-1.1113 0.04939z" fill="#fefefe" fill-rule="evenodd"/>
<path d="m18.514 24.5 3.1611 5.1445" fill="none" stroke="#000" stroke-linecap="round" stroke-width=".51921"/>
<path d="m12.61 32.082c2.5908 0.6717 6.2226 2.6534 6.7504 2.4135 0 0 3.077-2.7194 3.3612-8.3721" fill="none" stroke="#000" stroke-width=".44504"/>
<path d="m13.061 32.345s-3.5864 1.0979-3.8059 1.8298c-0.21958 0.73191-0.36596 2.5617 1.8298 3.2936 2.1957 0.73191 2.5617 0.73191 2.5617 0.73191" fill="none" stroke="#000" stroke-width=".14835px"/>
</g>
</svg>
